<?xml version="1.0" encoding="UTF-8"?>
<svg id="Ebene_1" data-name="Ebene 1" xmlns="http://www.w3.org/2000/svg" viewBox="0 0 451.65 71.87">
  <defs>
    <style>
      .cls-1 {
        fill: #f4bd0c;
      }

      .cls-2 {
        opacity: .68;
      }
    </style>
  </defs>
  <g class="cls-2">
    <path class="cls-1" d="m14.47,71.87l6.15-26.57L0,27.42l27.24-2.36L37.83,0l10.59,25.06,27.24,2.36-20.62,17.87,6.15,26.57-23.36-14.09-23.36,14.09Z"/>
  </g>
  <g class="cls-2">
    <path class="cls-1" d="m108.47,71.87l6.15-26.57-20.62-17.87,27.24-2.36L131.83,0l10.59,25.06,27.24,2.36-20.62,17.87,6.15,26.57-23.36-14.09-23.36,14.09Z"/>
  </g>
  <g class="cls-2">
    <path class="cls-1" d="m202.47,71.87l6.15-26.57-20.62-17.87,27.24-2.36L225.83,0l10.59,25.06,27.24,2.36-20.62,17.87,6.15,26.57-23.36-14.09-23.36,14.09Z"/>
  </g>
  <g class="cls-2">
    <path class="cls-1" d="m296.47,71.87l6.15-26.57-20.62-17.87,27.24-2.36,10.59-25.06,10.59,25.06,27.24,2.36-20.62,17.87,6.15,26.57-23.36-14.09-23.36,14.09Z"/>
  </g>
  <g class="cls-2">
    <path class="cls-1" d="m390.47,71.87l6.15-26.57-20.62-17.87,27.24-2.36,10.59-25.06,10.59,25.06,27.24,2.36-20.62,17.87,6.15,26.57-23.36-14.09-23.36,14.09Z"/>
  </g>
</svg>